<?xml version="1.0" encoding="UTF-8"?> <svg xmlns="http://www.w3.org/2000/svg" viewBox="0 0 170 35.01"><g id="Layer_2" data-name="Layer 2"><g id="Layer_1-2" data-name="Layer 1"><g id="logomark"><path id="Path" d="M150.36.22,132.44,13.35c-.29.23-.43.37-.44.62V34.21a.86.86,0,0,0,.86.79h36.28a.86.86,0,0,0,.86-.79v-20c0-.41-.11-.57-.46-.84L151.69.24A1.08,1.08,0,0,0,150.36.22Z" style="fill:#1a73e8"></path><path id="Combined_Shape" data-name="Combined Shape" d="M146,27.45l-6.27-6.27a1.52,1.52,0,0,1,0-2.13,1.5,1.5,0,0,1,2.11,0h0l7.32,7.35-1.05,1.05a1.51,1.51,0,0,1-2.12,0Zm8.48,0-6.27-6.27a1.5,1.5,0,1,1,2-2.28l.16.16,5.22,5.2L167.73,12l1.81,1.33c.29.23.43.38.45.65L156.54,27.44a1.5,1.5,0,0,1-2.11,0ZM155.49,20l-2.11-2.11,9.39-9.54,2.43,1.78L155.49,20Z" style="fill:#fff"></path></g><path d="M47.72,15.66a2.53,2.53,0,0,0-.12-.77,2.58,2.58,0,0,0-.25-.56H35.85a1.19,1.19,0,0,0-.91.35,1.56,1.56,0,0,0-.33,1.08,2.46,2.46,0,0,0,.12.76,4.7,4.7,0,0,0,.25.57h4.43V28.73A1.57,1.57,0,0,0,39.83,30h0a2.18,2.18,0,0,0,1.43.36,5.7,5.7,0,0,0,.92-.07l.66-.13v-13h3.64a1.16,1.16,0,0,0,.91-.37A1.51,1.51,0,0,0,47.72,15.66Z" style="fill:#343a40"></path><path d="M79,26.67a7.84,7.84,0,0,1-1.57.76,5.81,5.81,0,0,1-2.1.33,4.94,4.94,0,0,1-3.69-1.38,5.64,5.64,0,0,1-1.38-4.14,5.88,5.88,0,0,1,1.34-4.14,4.65,4.65,0,0,1,3.57-1.42,5.28,5.28,0,0,1,2.08.37,11.19,11.19,0,0,1,1.53.81,2.19,2.19,0,0,0,.66-.59,1.41,1.41,0,0,0,.29-.9,1.55,1.55,0,0,0-.34-.94,3.15,3.15,0,0,0-1-.78,6.76,6.76,0,0,0-1.59-.53,9.38,9.38,0,0,0-2.05-.2,8.84,8.84,0,0,0-3.1.54,7.48,7.48,0,0,0-2.56,1.6,7.69,7.69,0,0,0-1.73,2.6,9.56,9.56,0,0,0-.63,3.58,9.75,9.75,0,0,0,.63,3.67A7,7,0,0,0,71.66,30a9.89,9.89,0,0,0,3.24.51,9.12,9.12,0,0,0,2.38-.28,6.58,6.58,0,0,0,1.49-.58,2,2,0,0,0,.79-.66,1.44,1.44,0,0,0,.24-.8,1.68,1.68,0,0,0-.24-.93A1.81,1.81,0,0,0,79,26.67Z" style="fill:#343a40"></path><path d="M56.34,17.88a8,8,0,0,0-5.28,0,5.66,5.66,0,0,0-3.36,3.36A7.63,7.63,0,0,0,47.24,24a7.57,7.57,0,0,0,.46,2.75A5.57,5.57,0,0,0,51,30.07h0a8,8,0,0,0,5.33,0,5.79,5.79,0,0,0,2-1.32,6,6,0,0,0,1.3-2.07A7.41,7.41,0,0,0,60.16,24a7.26,7.26,0,0,0-.46-2.69A5.71,5.71,0,0,0,56.34,17.88Zm.09,7.7a2.89,2.89,0,0,1-.7,1.09,2.62,2.62,0,0,1-1,.58,3.47,3.47,0,0,1-1.08.17,3.32,3.32,0,0,1-1.07-.17,2.66,2.66,0,0,1-1-.58,2.89,2.89,0,0,1-.7-1.09,5,5,0,0,1-.26-1.73,4.9,4.9,0,0,1,.26-1.7,3,3,0,0,1,.7-1.1,2.43,2.43,0,0,1,1-.59,3.34,3.34,0,0,1,1.07-.18,3.49,3.49,0,0,1,1.08.18,2.4,2.4,0,0,1,1,.59,3,3,0,0,1,.7,1.1,4.9,4.9,0,0,1,.26,1.7A5,5,0,0,1,56.43,25.58Z" style="fill:#343a40"></path><path d="M11.53,14.12a5.29,5.29,0,0,0-.9.08l-.69.13v10A3.29,3.29,0,0,1,9,26.89a3.29,3.29,0,0,1-2.35.87,3.29,3.29,0,0,1-2.35-.87,3.29,3.29,0,0,1-.92-2.51V15.71A1.49,1.49,0,0,0,3,14.46a2.27,2.27,0,0,0-1.39-.34,5.59,5.59,0,0,0-.91.08c-.3.05-.53.09-.67.13V24.51A6.65,6.65,0,0,0,.45,27a5.16,5.16,0,0,0,1.3,1.9,5.91,5.91,0,0,0,2.1,1.22,8.76,8.76,0,0,0,2.83.43,8.74,8.74,0,0,0,2.82-.43,6,6,0,0,0,2.11-1.23A5.05,5.05,0,0,0,12.93,27a6.56,6.56,0,0,0,.44-2.48v-8.8a1.48,1.48,0,0,0-.44-1.25A2.3,2.3,0,0,0,11.53,14.12Z" style="fill:#343a40"></path><path d="M26.79,19a5.8,5.8,0,0,0-2.13-1.18A9,9,0,0,0,22,17.43a9.17,9.17,0,0,0-2.56.32,8.7,8.7,0,0,0-1.9.77,2.43,2.43,0,0,0-.8.73,1.81,1.81,0,0,0-.25,1v13.2a1.39,1.39,0,0,0,.45,1.2,2.23,2.23,0,0,0,1.36.34,4.43,4.43,0,0,0,.9-.08l.64-.13V30a6.84,6.84,0,0,0,1.17.35,6.69,6.69,0,0,0,1.41.15,7.21,7.21,0,0,0,2.52-.42,5.29,5.29,0,0,0,2-1.25,6,6,0,0,0,1.3-2.06,7.72,7.72,0,0,0,.48-2.86,7.84,7.84,0,0,0-.5-2.92A5.45,5.45,0,0,0,26.79,19Zm-1.67,6.6a3,3,0,0,1-.85,1.11,3.33,3.33,0,0,1-1.21.59,5.23,5.23,0,0,1-1.36.17,5,5,0,0,1-1.09-.1,4.21,4.21,0,0,1-.74-.22V20.64a4.37,4.37,0,0,1,.95-.22,7.36,7.36,0,0,1,.88-.06,6.23,6.23,0,0,1,1.36.15,3.12,3.12,0,0,1,1.21.56,2.88,2.88,0,0,1,.85,1.08,3.87,3.87,0,0,1,.32,1.71A4,4,0,0,1,25.12,25.58Z" style="fill:#343a40"></path><path d="M121.62,23.94a1.49,1.49,0,0,0,.38-1.1,5.28,5.28,0,0,0-.44-2.18,5,5,0,0,0-1.2-1.72,5.52,5.52,0,0,0-1.84-1.12,6.86,6.86,0,0,0-2.37-.4,7.5,7.5,0,0,0-2.4.39,5.66,5.66,0,0,0-2,1.2,5.84,5.84,0,0,0-1.35,2,7.28,7.28,0,0,0-.5,2.81,7.65,7.65,0,0,0,.51,2.92A5.69,5.69,0,0,0,114,30.11a9.43,9.43,0,0,0,2.84.41,10.09,10.09,0,0,0,1.82-.15,6,6,0,0,0,1.46-.45,2.82,2.82,0,0,0,1-.69,1.36,1.36,0,0,0,.36-.92,1.43,1.43,0,0,0-.24-.78,1.67,1.67,0,0,0-.61-.57,8.33,8.33,0,0,1-1.52.69,6.09,6.09,0,0,1-2,.32,4.79,4.79,0,0,1-2.48-.6,3.09,3.09,0,0,1-1.37-1.92l7.33-1A2,2,0,0,0,121.62,23.94Zm-3.3-1.54-4.44.71a.59.59,0,0,1-.71-.56,2.15,2.15,0,0,1,.61-1.53,3.78,3.78,0,0,1,2-.84,3.13,3.13,0,0,1,2.06.26,2.19,2.19,0,0,1,.91,1.39A.47.47,0,0,1,118.32,22.4Z" style="fill:#343a40"></path><path d="M105.79,13a5.26,5.26,0,0,0-.89.07,2.77,2.77,0,0,0-.62.14v4.71a6.17,6.17,0,0,0-1.13-.35,6,6,0,0,0-1.34-.15,7.89,7.89,0,0,0-2.51.39,5.54,5.54,0,0,0-2,1.2,5.88,5.88,0,0,0-1.36,2,8,8,0,0,0-.5,3,6.16,6.16,0,0,0,1.86,4.91,7.44,7.44,0,0,0,5,1.6,7.87,7.87,0,0,0,2.5-.35,7.32,7.32,0,0,0,1.74-.77,2.66,2.66,0,0,0,.79-.7,1.63,1.63,0,0,0,.27-1V14.54a1.42,1.42,0,0,0-.44-1.2A2.24,2.24,0,0,0,105.79,13Zm-1.57,14.12a4.24,4.24,0,0,1-1,.22,7.34,7.34,0,0,1-.87.06,6.16,6.16,0,0,1-1.36-.15,3.12,3.12,0,0,1-1.21-.56A2.93,2.93,0,0,1,99,25.62a3.91,3.91,0,0,1-.33-1.72A4,4,0,0,1,99,22.18a3,3,0,0,1,.85-1.11,3.33,3.33,0,0,1,1.21-.59,5.63,5.63,0,0,1,1.36-.17,5.12,5.12,0,0,1,1.09.1,4.07,4.07,0,0,1,.73.22Z" style="fill:#343a40"></path><path d="M90,17.89a7.82,7.82,0,0,0-5.27,0,5.68,5.68,0,0,0-2,1.3,5.78,5.78,0,0,0-1.32,2A7.66,7.66,0,0,0,80.87,24a7.79,7.79,0,0,0,.46,2.75,5.62,5.62,0,0,0,3.34,3.36h0a8.12,8.12,0,0,0,5.33,0,5.91,5.91,0,0,0,2-1.31,6,6,0,0,0,1.3-2.07A7.45,7.45,0,0,0,93.79,24a7.31,7.31,0,0,0-.46-2.7A5.67,5.67,0,0,0,90,17.89Zm.12,7.62a2.89,2.89,0,0,1-.7,1.09,2.62,2.62,0,0,1-1,.58,3.47,3.47,0,0,1-1.08.17,3.32,3.32,0,0,1-1.07-.17,2.58,2.58,0,0,1-1-.58,2.89,2.89,0,0,1-.7-1.09,5,5,0,0,1-.26-1.73,4.9,4.9,0,0,1,.26-1.7,3,3,0,0,1,.7-1.1,2.37,2.37,0,0,1,1-.59,3.34,3.34,0,0,1,1.07-.18,3.49,3.49,0,0,1,1.08.18,2.4,2.4,0,0,1,1,.59,3,3,0,0,1,.7,1.1,4.9,4.9,0,0,1,.26,1.7A5,5,0,0,1,90.09,25.51Z" style="fill:#343a40"></path></g></g></svg> 